<?xml version="1.0" encoding="UTF-8"?>
<svg version="1.1" xmlns="http://www.w3.org/2000/svg" width="338" height="338">
<path d="M0 0 C111.54 0 223.08 0 338 0 C338 111.54 338 223.08 338 338 C226.46 338 114.92 338 0 338 C0 226.46 0 114.92 0 0 Z " fill="#FEFEFE" transform="translate(0,0)"/>
<path d="M0 0 C1.3430999 -0.01774223 1.3430999 -0.01774223 2.71333313 -0.0358429 C5.65093988 -0.06853909 8.58761439 -0.07168724 11.52539062 -0.0715332 C13.57987847 -0.08185702 15.63436271 -0.09292122 17.68884277 -0.10469055 C21.98585511 -0.12408142 26.28254217 -0.12755765 30.57958984 -0.12109375 C36.07440528 -0.11509093 41.56753542 -0.15938583 47.06200409 -0.21698284 C51.30182541 -0.2540209 55.54124139 -0.25888194 59.78120422 -0.25470924 C61.80655076 -0.25757428 63.83191457 -0.27159433 65.85710144 -0.2971859 C83.65044789 -0.49847128 83.65044789 -0.49847128 88.32250977 3.46533203 C89.47411399 4.80518395 90.59181558 6.17461846 91.68164062 7.56518555 C93.34069052 9.20681924 95.01657337 10.83153717 96.70483398 12.44311523 C98.56326224 14.28832705 100.4189562 16.13595726 102.27148438 17.98706055 C103.26649545 18.97885085 104.26157836 19.9705691 105.25672913 20.96221924 C107.32501757 23.0245669 109.39127716 25.08892262 111.45629883 27.15454102 C114.10311057 29.80145522 116.75678802 32.4413721 119.41219234 35.07966232 C121.46160417 37.1179767 123.50647629 39.16079841 125.55008125 41.20493317 C126.52729617 42.18096875 127.50613144 43.15538483 128.48661613 44.12813568 C129.85054245 45.48228887 131.20754755 46.84340253 132.56420898 48.20483398 C133.3372789 48.97647888 134.11034882 49.74812378 134.90684509 50.54315186 C137.89543675 53.94806972 137.81099567 56.96212599 137.82881165 61.31440735 C137.8395446 63.11242294 137.8395446 63.11242294 137.85049438 64.94676208 C137.85318329 66.2637056 137.85587219 67.58064911 137.85864258 68.9375 C137.86490838 70.33705819 137.87155529 71.73661472 137.8785553 73.13616943 C137.89958245 77.73359013 137.90995573 82.33101112 137.91992188 86.9284668 C137.92396979 88.51171575 137.92808673 90.09496452 137.93227196 91.67821312 C137.95131988 99.11594011 137.96555231 106.55365719 137.97388393 113.99140388 C137.9836583 122.57517701 138.00998455 131.15869241 138.05038482 139.74237472 C138.08054662 146.3785697 138.09535281 153.0146908 138.09866494 159.65095299 C138.10101518 163.61391302 138.10997203 167.57659757 138.13512611 171.53948402 C138.15841352 175.26846136 138.16263768 178.99698197 138.15236473 182.72601318 C138.15163367 184.74305634 138.17071973 186.76007633 138.19042969 188.77702332 C138.12749883 199.71713455 138.12749883 199.71713455 133.68164062 204.56518555 C133.06289062 205.28706055 132.44414062 206.00893555 131.80664062 206.75268555 C125.30095425 212.30165334 119.06131077 211.99430575 110.88671875 211.95336914 C108.95402382 211.96125458 108.95402382 211.96125458 106.98228455 211.96929932 C103.45953537 211.98293913 99.93705071 211.97768823 96.4142971 211.96816206 C92.7215442 211.96054809 89.0288134 211.96761589 85.33605957 211.97232056 C79.1356196 211.97777306 72.93528695 211.97059981 66.73486328 211.95629883 C59.57409263 211.93997322 52.41357826 211.94526209 45.25281382 211.96177804 C39.09636449 211.97540736 32.93999216 211.97730553 26.78353262 211.96946204 C23.11020808 211.96479344 19.43700387 211.96413818 15.76368713 211.9740715 C11.6678254 211.98437449 7.57240306 211.97008026 3.4765625 211.95336914 C2.2639122 211.95944183 1.0512619 211.96551453 -0.19813538 211.97177124 C-7.15431776 211.91916754 -12.10105897 211.55914615 -17.40039062 206.62768555 C-17.97144531 205.94706055 -18.5425 205.26643555 -19.13085938 204.56518555 C-19.71480469 203.88456055 -20.29875 203.20393555 -20.90039062 202.50268555 C-23.70758391 198.66696138 -23.47134158 194.82335099 -23.47898865 190.27963257 C-23.48407647 189.53204575 -23.48916429 188.78445894 -23.49440628 188.01421797 C-23.51013923 185.50174938 -23.5186581 182.98930957 -23.52709961 180.47680664 C-23.53663748 178.67818011 -23.54652862 176.87955541 -23.55674744 175.08093262 C-23.58814332 169.1668516 -23.60840196 163.25275648 -23.62695312 157.33862305 C-23.63025045 156.33228837 -23.63354777 155.32595368 -23.63694501 154.28912401 C-23.6677287 144.79717495 -23.69443497 135.30522271 -23.71136379 125.81323814 C-23.73326569 113.67530877 -23.77522521 101.53782202 -23.84480137 89.40006959 C-23.89206824 80.86406046 -23.91630104 72.32817063 -23.92356068 63.79203475 C-23.92851328 58.69484607 -23.94355687 53.59815618 -23.98330498 48.50111008 C-24.02023157 43.70256449 -24.02856126 38.90480131 -24.01529884 34.10614014 C-24.01535269 32.34897351 -24.02560907 30.59177168 -24.04705048 28.83473587 C-24.237016 12.38268464 -24.237016 12.38268464 -19.12464237 6.20445156 C-13.32144583 0.93784446 -7.64060757 -0.03121402 0 0 Z " fill="#744CBD" transform="translate(112.318359375,63.434814453125)"/>
<path d="M0 0 C28.08682966 0 28.08682966 0 40.02319336 11.87792969 C40.92029526 12.76865173 41.81739716 13.65937378 42.74168396 14.5770874 C43.69127216 15.52514805 44.64065405 16.47341538 45.58984375 17.421875 C46.58485482 18.41366531 47.57993773 19.40538355 48.5750885 20.39703369 C50.64337695 22.45938135 52.70963654 24.52373707 54.7746582 26.58935547 C57.42146994 29.23626967 60.0751474 31.87618655 62.73055172 34.51447678 C64.77996354 36.55279115 66.82483566 38.59561286 68.86844063 40.63974762 C69.84565555 41.6157832 70.82449082 42.59019928 71.80497551 43.56295013 C73.16890182 44.91710332 74.52590693 46.27821699 75.88256836 47.63964844 C76.65563828 48.41129333 77.42870819 49.18293823 78.22520447 49.97796631 C81.21379612 53.38288418 81.12935505 56.39694045 81.14717102 60.7492218 C81.15432632 61.94789886 81.16148163 63.14657593 81.16885376 64.38157654 C81.17154266 65.69852005 81.17423157 67.01546356 81.17700195 68.37231445 C81.18326776 69.77187264 81.18991466 71.17142917 81.19691467 72.57098389 C81.21794182 77.16840459 81.2283151 81.76582557 81.23828125 86.36328125 C81.24232917 87.9465302 81.2464461 89.52977898 81.25063133 91.11302757 C81.26967926 98.55075456 81.28391169 105.98847164 81.2922433 113.42621833 C81.30201768 122.00999146 81.32834393 130.59350686 81.36874419 139.17718917 C81.39890599 145.81338415 81.41371219 152.44950525 81.41702431 159.08576745 C81.41937455 163.04872747 81.4283314 167.01141202 81.45348549 170.97429848 C81.4767729 174.70327581 81.48099706 178.43179642 81.47072411 182.16082764 C81.46999304 184.17787079 81.4890791 186.19489078 81.50878906 188.21183777 C81.44585821 199.151949 81.44585821 199.151949 77 204 C76.38125 204.721875 75.7625 205.44375 75.125 206.1875 C70.46792493 210.15971109 66.31591691 211.37537883 60.26025391 211.34057617 C59.61564209 211.34101425 58.97103027 211.34145233 58.30688477 211.34190369 C56.19645885 211.33982956 54.08684797 211.31656576 51.9765625 211.29296875 C50.50540602 211.28736785 49.03424392 211.28310009 47.56307983 211.28010559 C43.70620048 211.26869557 39.84966441 211.23926212 35.99291992 211.20599365 C31.35732618 211.16978928 26.72161714 211.15611326 22.08592224 211.13863373 C15.05704334 211.10962185 8.02891645 211.05210894 1 211 C1 194.83 1 178.66 1 162 C19.75 161.75 19.75 161.75 25.65136719 161.70214844 C27.19990001 161.6727759 28.74840623 161.6419496 30.296875 161.609375 C31.09689941 161.60824707 31.89692383 161.60711914 32.72119141 161.60595703 C36.36205878 161.51236734 38.55355489 161.33366263 41.51269531 159.12207031 C43.16703128 157.06757068 43.16703128 157.06757068 43.5 154.4375 C43.20676958 151.9464187 43.20676958 151.9464187 41.51269531 150.37963867 C37.882453 148.38639156 34.33886706 148.52014572 30.296875 148.48828125 C29.45908508 148.47033005 28.62129517 148.45237885 27.75811768 148.43388367 C25.08879593 148.37980944 22.41965269 148.34589468 19.75 148.3125 C17.93747518 148.27932432 16.1249739 148.24483443 14.3125 148.20898438 C9.87512886 148.12408477 5.43781039 148.05726003 1 148 C1 144.37 1 140.74 1 137 C2.13018555 136.9906543 3.26037109 136.98130859 4.42480469 136.97167969 C8.62214421 136.93177608 12.81875104 136.86601674 17.015625 136.79248047 C18.83128439 136.7642729 20.64706652 136.74305726 22.46289062 136.72900391 C25.07485789 136.70757091 27.68534974 136.66092115 30.296875 136.609375 C31.10743347 136.60814636 31.91799194 136.60691772 32.75311279 136.60565186 C36.38343087 136.51152146 38.56306116 136.32655787 41.51269531 134.12207031 C43.16703128 132.06757068 43.16703128 132.06757068 43.5 129.4375 C43.20676958 126.9464187 43.20676958 126.9464187 41.51269531 125.37963867 C37.882453 123.38639156 34.33886706 123.52014572 30.296875 123.48828125 C29.04019012 123.46135445 29.04019012 123.46135445 27.75811768 123.43388367 C25.08879593 123.37980944 22.41965269 123.34589468 19.75 123.3125 C17.93747518 123.27932432 16.1249739 123.24483443 14.3125 123.20898438 C9.87512886 123.12408477 5.43781039 123.05726003 1 123 C1 119.37 1 115.74 1 112 C2.13542236 111.98018066 3.27084473 111.96036133 4.44067383 111.93994141 C8.65086144 111.86390316 12.86070263 111.77518314 17.07055664 111.68261719 C18.89307824 111.64432005 20.71567563 111.60946845 22.53833008 111.578125 C25.15733941 111.53249021 27.77582674 111.47449378 30.39453125 111.4140625 C31.21025101 111.40251129 32.02597076 111.39096008 32.8664093 111.37905884 C36.73364504 111.27802726 38.71159785 111.1922681 42 109 C42.5 105.5 42.5 105.5 42 102 C30.3216176 94.21441174 14.03105716 99.3597707 0 99 C0 66.33 0 33.66 0 0 Z " fill="#5F45A9" transform="translate(169,64)"/>
<path d="M0 0 C4.39330188 1.4154383 6.89684961 3.52219874 10.14160156 6.76928711 C10.62840393 7.25243881 11.1152063 7.73559052 11.61676025 8.23338318 C13.21552429 9.8240752 14.80322265 11.42531961 16.390625 13.02734375 C17.50158433 14.13882196 18.61306272 15.24978157 19.72503662 16.36024475 C22.04963979 18.68493748 24.36900077 21.01469842 26.68457031 23.34838867 C29.65425385 26.34079834 32.63492574 29.32196647 35.61935806 32.29965878 C37.91367951 34.59064132 40.20298913 36.88657784 42.49071503 39.18414497 C43.58821888 40.28549948 44.68707622 41.38550694 45.78730011 42.48414421 C47.32185631 44.01833007 48.84975895 45.55884292 50.37597656 47.10131836 C51.24691956 47.97686874 52.11786255 48.85241913 53.01519775 49.75450134 C56.16202394 53.31465147 56.12426481 56.21384657 56.12025452 60.78959656 C56.12162918 61.99694458 56.12300385 63.2042926 56.12442017 64.44822693 C56.12088105 65.78799463 56.11724624 67.12776209 56.11352539 68.4675293 C56.11324335 69.87682086 56.11340158 71.28611257 56.1139679 72.69540405 C56.11425521 76.52362954 56.10836905 80.3518238 56.10139394 84.18004203 C56.09514952 88.17990699 56.09455574 92.17977264 56.09336853 96.17964172 C56.09025843 103.75502414 56.08204936 111.33039215 56.07201904 118.90576822 C56.06084794 127.52961368 56.05534494 136.15345983 56.05032361 144.77731073 C56.0398665 162.51821532 56.02227325 180.2591065 56 198 C55.67 198 55.34 198 55 198 C55 151.14 55 104.28 55 56 C40.15 56 25.3 56 10 56 C4.39669245 53.19834622 1.91513122 51.74166934 0 46 C-0.50079956 42.40314481 -0.46778796 38.87960549 -0.390625 35.25390625 C-0.38496521 34.24279282 -0.37930542 33.23167938 -0.37347412 32.18992615 C-0.35119521 28.98028977 -0.30101377 25.77179541 -0.25 22.5625 C-0.22992407 20.3782714 -0.21167522 18.1940252 -0.1953125 16.00976562 C-0.15135848 10.67279155 -0.0845318 5.33647739 0 0 Z " fill="#997DCE" transform="translate(194,64)"/>
<path d="M0 0 C1.93220398 -0.01418472 1.93220398 -0.01418472 3.90344238 -0.02865601 C5.3060741 -0.02328615 6.708703 -0.01713316 8.11132812 -0.01025391 C9.55334622 -0.01227557 10.99536333 -0.01518778 12.43737793 -0.01895142 C15.45688631 -0.02337046 18.47612812 -0.01695752 21.49560547 -0.00292969 C25.36277231 0.01416231 29.22931451 0.00431883 33.09645844 -0.01364708 C36.07335095 -0.02449647 39.05009579 -0.02103335 42.0269928 -0.0132637 C43.45272394 -0.01126487 44.87846856 -0.01370986 46.30418396 -0.02070236 C48.29783872 -0.0283349 50.2915406 -0.01463556 52.28515625 0 C53.98581238 0.00358017 53.98581238 0.00358017 55.7208252 0.00723267 C58.97570602 0.43161827 60.37484681 1.03637595 62.64257812 3.38818359 C63.14257812 6.88818359 63.14257812 6.88818359 62.64257812 10.38818359 C60.37484681 12.73999124 58.97570602 13.34474892 55.7208252 13.76913452 C54.02016907 13.77271469 54.02016907 13.77271469 52.28515625 13.77636719 C50.35295227 13.79055191 50.35295227 13.79055191 48.38171387 13.80502319 C46.97908215 13.79965334 45.57645325 13.79350035 44.17382812 13.78662109 C42.73181003 13.78864276 41.28979292 13.79155497 39.84777832 13.7953186 C36.82826994 13.79973765 33.80902813 13.79332471 30.78955078 13.77929688 C26.92238394 13.76220487 23.05584174 13.77204836 19.18869781 13.79001427 C16.2118053 13.80086365 13.23506046 13.79740054 10.25816345 13.78963089 C8.83243231 13.78763206 7.40668769 13.79007704 5.98097229 13.79706955 C3.98731753 13.80470208 1.99361565 13.79100275 0 13.77636719 C-1.13377075 13.77398041 -2.2675415 13.77159363 -3.43566895 13.76913452 C-6.69054977 13.34474892 -8.08969056 12.73999124 -10.35742188 10.38818359 C-10.85742188 6.88818359 -10.85742188 6.88818359 -10.35742188 3.38818359 C-7.17452023 0.0872756 -4.45606243 0.00938077 0 0 Z " fill="#D9D9E5" transform="translate(149.357421875,162.61181640625)"/>
<path d="M0 0 C0.658862 -0.00525696 1.317724 -0.01051392 1.99655151 -0.01593018 C4.17372365 -0.02913053 6.35016422 -0.02039267 8.52734375 -0.01025391 C10.04044739 -0.01227465 11.55355008 -0.01518609 13.06665039 -0.01895142 C16.23756179 -0.02337479 19.40821964 -0.01694352 22.57910156 -0.00292969 C26.64480267 0.01416249 30.70990968 0.00432134 34.77558899 -0.01364708 C37.89998862 -0.02448472 41.02424726 -0.02103873 44.14865112 -0.0132637 C45.647777 -0.01126163 47.14691565 -0.01372125 48.64602661 -0.02070236 C50.74092541 -0.02831687 52.83486053 -0.0167143 54.9296875 0 C56.12198975 0.00238678 57.31429199 0.00477356 58.54272461 0.00723267 C61.46484375 0.38818359 61.46484375 0.38818359 63.38500977 1.68978882 C64.46484375 3.38818359 64.46484375 3.38818359 64.27734375 6.95068359 C63.46484375 10.38818359 63.46484375 10.38818359 61.46484375 12.38818359 C58.66297913 12.64888 58.66297913 12.64888 55.04321289 12.6628418 C54.38449692 12.66795273 53.72578094 12.67306366 53.04710388 12.67832947 C50.86464408 12.69225554 48.68249901 12.69126646 46.5 12.68896484 C44.98546735 12.69285026 43.47093578 12.69718461 41.95640564 12.70195007 C38.77957632 12.70941885 35.60285811 12.70911639 32.42602539 12.70385742 C28.35247717 12.69806319 24.2793837 12.71498907 20.20591068 12.7382021 C17.07723831 12.75292599 13.94867578 12.75381297 10.8199749 12.75069237 C9.31804949 12.75120631 7.81611805 12.75645764 6.31422615 12.76650429 C4.21447239 12.77882533 2.11560839 12.77210412 0.01586914 12.76049805 C-1.17944931 12.76112747 -2.37476776 12.7617569 -3.60630798 12.7624054 C-6.53515625 12.38818359 -6.53515625 12.38818359 -8.42115784 11.05241394 C-10.16537304 8.44668682 -9.91582727 6.43355172 -9.53515625 3.38818359 C-7.04341416 -0.32876505 -4.23022184 0.00846816 0 0 Z " fill="#E0E3E8" transform="translate(148.53515625,212.61181640625)"/>
<path d="M0 0 C0.64750214 -0.00525696 1.29500427 -0.01051392 1.96212769 -0.01593018 C4.1020319 -0.02913116 6.24119176 -0.02039147 8.38110352 -0.01025391 C9.8693913 -0.01227488 11.35767813 -0.01518651 12.84596252 -0.01895142 C15.96560084 -0.02337508 19.08498148 -0.01694353 22.20458984 -0.00292969 C26.20069404 0.01414768 30.19619314 0.00433096 34.19227505 -0.01364708 C37.26610356 -0.02449664 40.33978904 -0.02103301 43.4136219 -0.0132637 C44.8868015 -0.01126415 46.35999413 -0.01371239 47.83315849 -0.02070236 C49.89432948 -0.02833483 51.95452642 -0.01668854 54.015625 0 C55.18794174 0.00238678 56.36025848 0.00477356 57.56809998 0.00723267 C60.82409789 0.42008428 62.19706032 1.18370998 64.57250977 3.38818359 C63.82250977 10.13818359 63.82250977 10.13818359 61.57250977 12.38818359 C58.77064514 12.64888 58.77064514 12.64888 55.15087891 12.6628418 C54.49216293 12.66795273 53.83344696 12.67306366 53.1547699 12.67832947 C50.97231009 12.69225554 48.79016503 12.69126646 46.60766602 12.68896484 C45.09313336 12.69285026 43.5786018 12.69718461 42.06407166 12.70195007 C38.88724233 12.70941885 35.71052413 12.70911639 32.53369141 12.70385742 C28.46014319 12.69806319 24.38704971 12.71498907 20.3135767 12.7382021 C17.18490433 12.75292599 14.05634179 12.75381297 10.92764091 12.75069237 C9.42571551 12.75120631 7.92378406 12.75645764 6.42189217 12.76650429 C4.3221384 12.77882533 2.22327441 12.77210412 0.12353516 12.76049805 C-1.07178329 12.76112747 -2.26710175 12.7617569 -3.49864197 12.7624054 C-6.42749023 12.38818359 -6.42749023 12.38818359 -8.31349182 11.05241394 C-10.05770703 8.44668682 -9.80816125 6.43355172 -9.42749023 3.38818359 C-6.94445152 -0.2935623 -4.20729279 0.00857166 0 0 Z " fill="#DFE1E8" transform="translate(148.427490234375,187.61181640625)"/>
<path d="M0 0 C1.25361328 0.00966797 2.50722656 0.01933594 3.79882812 0.02929688 C5.10916016 0.05443359 6.41949219 0.07957031 7.76953125 0.10546875 C9.10480288 0.12051908 10.44009062 0.13420688 11.77539062 0.14648438 C15.04467701 0.18189181 18.31315218 0.23127985 21.58203125 0.29296875 C21.60890404 2.10538927 21.6283684 3.91792108 21.64453125 5.73046875 C21.65613281 6.73980469 21.66773438 7.74914062 21.6796875 8.7890625 C21.58203125 11.29296875 21.58203125 11.29296875 20.58203125 12.29296875 C16.1302502 12.57488925 11.66667317 12.5248032 7.20703125 12.54296875 C5.94890625 12.56359375 4.69078125 12.58421875 3.39453125 12.60546875 C2.19054687 12.610625 0.9865625 12.61578125 -0.25390625 12.62109375 C-1.3629834 12.63043945 -2.47206055 12.63978516 -3.61474609 12.64941406 C-6.41796875 12.29296875 -6.41796875 12.29296875 -8.27978516 10.95996094 C-10.05642782 8.35787683 -9.8002989 6.35160995 -9.41796875 3.29296875 C-6.93274837 -0.40323568 -4.21113032 -0.05716466 0 0 Z " fill="#FCF1F3" transform="translate(148.41796875,212.70703125)"/>
<path d="M0 0 C0.33 0 0.66 0 1 0 C1 10.56 1 21.12 1 32 C-9.56 32 -20.12 32 -31 32 C-28.14265151 30.09510101 -25.35037981 28.71363108 -22.25 27.25 C-10.1347983 21.17780252 -4.26789343 12.80368028 0 0 Z " fill="#000000" transform="translate(337,306)"/>
<path d="M0 0 C1.90489899 2.85734849 3.28636892 5.64962019 4.75 8.75 C10.82219748 20.8652017 19.19631972 26.73210657 32 31 C32 31.33 32 31.66 32 32 C21.44 32 10.88 32 0 32 C0 21.44 0 10.88 0 0 Z " fill="#000000" transform="translate(0,306)"/>
<path d="M0 0 C10.56 0 21.12 0 32 0 C32 10.56 32 21.12 32 32 C30.09510101 29.14265151 28.71363108 26.35037981 27.25 23.25 C21.17780252 11.1347983 12.80368028 5.26789343 0 1 C0 0.67 0 0.34 0 0 Z " fill="#000000" transform="translate(306,0)"/>
<path d="M0 0 C10.56 0 21.12 0 32 0 C29.14265151 1.90489899 26.35037981 3.28636892 23.25 4.75 C11.1347983 10.82219748 5.26789343 19.19631972 1 32 C0.67 32 0.34 32 0 32 C0 21.44 0 10.88 0 0 Z " fill="#000000" transform="translate(0,0)"/>
<path d="M0 0 C1.20446777 0.01047363 2.40893555 0.02094727 3.64990234 0.03173828 C5.60283203 0.04140625 5.60283203 0.04140625 7.59521484 0.05126953 C8.9754258 0.06798149 10.35563413 0.08491139 11.73583984 0.10205078 C13.12385436 0.11208072 14.51187574 0.12120655 15.89990234 0.12939453 C19.3037201 0.15303215 22.70719491 0.18598211 26.11083984 0.22705078 C26.11083984 3.85705078 26.11083984 7.48705078 26.11083984 11.22705078 C22.01745333 11.27644193 17.92418186 11.31276579 13.83056641 11.33691406 C12.43763203 11.34697956 11.04471882 11.36063312 9.65185547 11.37792969 C7.65129625 11.40215298 5.65058369 11.41245892 3.64990234 11.42236328 C2.44543457 11.43283691 1.2409668 11.44331055 0 11.45410156 C-2.88916016 11.22705078 -2.88916016 11.22705078 -4.88916016 9.22705078 C-5.13916016 5.72705078 -5.13916016 5.72705078 -4.88916016 2.22705078 C-2.88916016 0.22705078 -2.88916016 0.22705078 0 0 Z " fill="#FDF3F4" transform="translate(143.88916015625,163.77294921875)"/>
<path d="M0 0 C1.20446777 0.01047363 2.40893555 0.02094727 3.64990234 0.03173828 C5.60283203 0.04140625 5.60283203 0.04140625 7.59521484 0.05126953 C8.9754258 0.06798149 10.35563413 0.08491139 11.73583984 0.10205078 C13.12385436 0.11208072 14.51187574 0.12120655 15.89990234 0.12939453 C19.3037201 0.15303215 22.70719491 0.18598211 26.11083984 0.22705078 C26.11083984 3.85705078 26.11083984 7.48705078 26.11083984 11.22705078 C22.1782304 11.30126532 18.24589262 11.35568215 14.31274414 11.3918457 C12.31756284 11.41433411 10.32257772 11.45245276 8.32763672 11.49072266 C7.07402344 11.50039062 5.82041016 11.51005859 4.52880859 11.52001953 C3.37147217 11.53572998 2.21413574 11.55144043 1.02172852 11.56762695 C-1.88916016 11.22705078 -1.88916016 11.22705078 -3.77075195 9.90014648 C-5.49105672 7.32663665 -5.20904893 5.2340053 -4.88916016 2.22705078 C-2.88916016 0.22705078 -2.88916016 0.22705078 0 0 Z " fill="#FEF4F4" transform="translate(143.88916015625,188.77294921875)"/>
<path d="M0 0 C1.875 1.125 1.875 1.125 3 3 C3.39365568 6.14924548 3.52854531 8.11909116 1.875 10.875 C-0.88090884 12.52854531 -2.85075452 12.39365568 -6 12 C-7.875 10.875 -7.875 10.875 -9 9 C-9.39365568 5.85075452 -9.52854531 3.88090884 -7.875 1.125 C-5.11909116 -0.52854531 -3.14924548 -0.39365568 0 0 Z " fill="#F8EDF2" transform="translate(123,213)"/>
<path d="M0 0 C1.875 1.125 1.875 1.125 3 3 C3.39365568 6.14924548 3.52854531 8.11909116 1.875 10.875 C-0.88090884 12.52854531 -2.85075452 12.39365568 -6 12 C-7.875 10.875 -7.875 10.875 -9 9 C-9.39365568 5.85075452 -9.52854531 3.88090884 -7.875 1.125 C-5.11909116 -0.52854531 -3.14924548 -0.39365568 0 0 Z " fill="#F7ECF2" transform="translate(123,188)"/>
<path d="M0 0 C3.5625 0.25 3.5625 0.25 6.5625 2.25 C6.95820119 5.3496593 7.06004211 7.37198451 5.5 10.125 C2.46435629 11.88763183 -0.01548172 11.62331109 -3.4375 11.25 C-5.73913882 7.79754176 -5.78240322 6.30261287 -5.4375 2.25 C-3.4375 0.25 -3.4375 0.25 0 0 Z " fill="#F8ECF2" transform="translate(119.4375,163.75)"/>
<path d="M0 0 C0.66 0.33 1.32 0.66 2 1 C-0.64 3.64 -3.28 6.28 -6 9 C-6 6 -6 6 -3.5625 3.375 C-2.716875 2.59125 -1.87125 1.8075 -1 1 C-0.67 0.67 -0.34 0.34 0 0 Z " fill="#8866C7" transform="translate(98,66)"/>
</svg>
